<svg height="542" width="720" xmlns="http://www.w3.org/2000/svg">
<rect height="542" fill="#555" width="720"></rect>
<text fill="#7f7" font-family="Courier New" font-size="12" xml:space="preserve">
<tspan x="10" y="26">4 megabytes installed</tspan>
<tspan x="10" y="42"></tspan>
<tspan x="10" y="58">node_modules</tspan>
<tspan x="10" y="74">└─┬ qwest@4.4.5 </tspan>
<tspan x="10" y="90">  ├── jquery-param@0.1.2 </tspan>
<tspan x="10" y="106">  └─┬ pinkyswear@2.2.2 </tspan>
<tspan x="10" y="122">    └─┬ promises-aplus-tests@2.0.5 </tspan>
<tspan x="10" y="138">      ├─┬ mocha@1.21.5 </tspan>
<tspan x="10" y="154">      │ ├── commander@2.3.0 </tspan>
<tspan x="10" y="170">      │ ├─┬ debug@2.0.0 </tspan>
<tspan x="10" y="186">      │ │ └── ms@0.6.2 </tspan>
<tspan x="10" y="202">      │ ├── diff@1.0.8 </tspan>
<tspan x="10" y="218">      │ ├── escape-string-regexp@1.0.2 </tspan>
<tspan x="10" y="234">      │ ├─┬ glob@3.2.3 </tspan>
<tspan x="10" y="250">      │ │ ├── graceful-fs@2.0.3 </tspan>
<tspan x="10" y="266">      │ │ ├── inherits@2.0.3 </tspan>
<tspan x="10" y="282">      │ │ └─┬ minimatch@0.2.14 </tspan>
<tspan x="10" y="298">      │ │   ├── lru-cache@2.7.3 </tspan>
<tspan x="10" y="314">      │ │   └── sigmund@1.0.1 </tspan>
<tspan x="10" y="330">      │ ├── growl@1.8.1 </tspan>
<tspan x="10" y="346">      │ ├─┬ jade@0.26.3 </tspan>
<tspan x="10" y="362">      │ │ ├── commander@0.6.1 </tspan>
<tspan x="10" y="378">      │ │ └── mkdirp@0.3.0 </tspan>
<tspan x="10" y="394">      │ └─┬ mkdirp@0.5.0 </tspan>
<tspan x="10" y="410">      │   └── minimist@0.0.8 </tspan>
<tspan x="10" y="426">      ├─┬ sinon@1.17.7 </tspan>
<tspan x="10" y="442">      │ ├── formatio@1.1.1 </tspan>
<tspan x="10" y="458">      │ ├── lolex@1.3.2 </tspan>
<tspan x="10" y="474">      │ ├── samsam@1.1.2 </tspan>
<tspan x="10" y="490">      │ └─┬ util@0.10.3 </tspan>
<tspan x="10" y="506">      │   └── inherits@2.0.1 </tspan>
<tspan x="10" y="522">      └── underscore@1.6.0</tspan>
</text>
</svg>
